<svg width="60" height="60" viewBox="0 0 60 60" fill="none" xmlns="http://www.w3.org/2000/svg">
    <path
        d="M45.3727 7C47.0172 7 48.3714 8.35425 48.3714 9.99871V52.8028C48.3714 53.2381 48.2263 53.6734 47.8878 54.012C47.5492 54.3506 47.1139 54.4957 46.6786 54.4957H13.6928C13.2575 54.4957 12.8222 54.3506 12.4837 54.012C12.1451 53.6734 12 53.2381 12 52.8028V8.69282C12 8.25752 12.1451 7.82223 12.4837 7.48366C12.8222 7.1451 13.2575 7 13.6928 7H42.1805H45.3727Z"
        fill="#E87722" />
    <path
        d="M41.309 20.6875H19.1572C18.6252 20.6875 18.2383 21.1228 18.2383 21.6065C18.2383 22.1385 18.6736 22.5254 19.1572 22.5254H41.309C41.841 22.5254 42.2279 22.0901 42.2279 21.6065C42.2279 21.1228 41.7926 20.6875 41.309 20.6875Z"
        fill="white" />
    <path
        d="M29.2673 13.1406H19.1104C18.5783 13.1406 18.1914 13.5759 18.1914 14.0596C18.1914 14.5916 18.6267 14.9785 19.1104 14.9785H29.2673C29.7993 14.9785 30.1862 14.5432 30.1862 14.0596C30.2346 13.5759 29.7993 13.1406 29.2673 13.1406Z"
        fill="white" />
    <path
        d="M41.309 43.2734H19.1572C18.6252 43.2734 18.2383 43.7087 18.2383 44.1924C18.2383 44.7244 18.6736 45.1114 19.1572 45.1114H41.309C41.841 45.1114 42.2279 44.6761 42.2279 44.1924C42.2279 43.6604 41.7926 43.2734 41.309 43.2734Z"
        fill="white" />
    <path
        d="M41.309 35.7305H19.1572C18.6252 35.7305 18.2383 36.1658 18.2383 36.6494C18.2383 37.1815 18.6736 37.5684 19.1572 37.5684H41.309C41.841 37.5684 42.2279 37.1331 42.2279 36.6494C42.2279 36.1658 41.7926 35.7305 41.309 35.7305Z"
        fill="white" />
    <path
        d="M41.309 28.2344H19.1572C18.6252 28.2344 18.2383 28.6697 18.2383 29.1533C18.2383 29.6854 18.6736 30.0723 19.1572 30.0723H41.309C41.841 30.0723 42.2279 29.637 42.2279 29.1533C42.2279 28.6213 41.7926 28.2344 41.309 28.2344Z"
        fill="white" />
    <path d="M41.7922 40.6172H39.6641V42.9871H41.7922V40.6172Z" fill="#183028" />
    <path
        d="M40.7303 18.5625C34.4911 18.5625 29.4609 23.5926 29.4609 29.8318C29.4609 36.0711 34.4911 41.1012 40.7303 41.1012C46.9695 41.1012 51.9996 36.0711 51.9996 29.8318C52.048 23.5926 46.9695 18.5625 40.7303 18.5625Z"
        fill="#F3BB91" />
    <path
        d="M40.7281 38.8741C35.7464 38.8741 31.6836 34.8114 31.6836 29.8296C31.6836 24.8479 35.7464 20.7852 40.7281 20.7852C45.7098 20.7852 49.7726 24.8479 49.7726 29.8296C49.7726 34.8114 45.7098 38.8741 40.7281 38.8741Z"
        fill="#F3BB91" />
    <path
        d="M40.73 37.0381C36.764 37.0381 33.5234 33.7976 33.5234 29.8316C33.5234 25.8655 36.764 22.625 40.73 22.625C44.7444 22.625 47.9366 25.8655 47.9366 29.8316C47.9849 33.7976 44.7444 37.0381 40.73 37.0381Z"
        fill="white" />
    <path
        d="M42.8577 44V54.0118C42.8577 55.1726 41.9387 56.1399 40.7296 56.1399C39.5204 56.1399 38.6014 55.221 38.6014 54.0118V44H42.8577Z"
        fill="#183028" />
    <path
        d="M42.8602 44.0001H38.6523V43.7582C38.6523 43.5648 38.7491 43.3713 38.8942 43.2262C39.0393 43.0811 39.2328 42.9844 39.4262 42.9844H42.1347C42.3282 42.9844 42.5217 43.0327 42.6668 43.2262C42.8119 43.3713 42.9086 43.5648 42.9086 43.7582V44.0001H42.8602Z"
        fill="#183028" />
</svg>